<svg width="29" height="29" viewBox="0 0 29 29" fill="none" xmlns="http://www.w3.org/2000/svg">
<path d="M19.43 2.97852C18.1224 2.97852 16.8685 3.49793 15.9439 4.42248C15.0194 5.34703 14.5 6.601 14.5 7.90852V21.3107C14.5019 22.0704 14.6572 22.8218 14.9565 23.52C15.2559 24.2183 15.6932 24.8488 16.2422 25.374C16.7912 25.8991 17.4405 26.3079 18.1514 26.576C18.8622 26.8441 19.6198 26.9659 20.3788 26.9341C21.1379 26.9023 21.8826 26.7175 22.5685 26.3909C23.2544 26.0642 23.8673 25.6025 24.3704 25.0332C24.8735 24.464 25.2565 23.799 25.4964 23.0782C25.7363 22.3574 25.8281 21.5956 25.7665 20.8384C26.941 19.5748 27.6805 17.1098 27.6805 15.0487C27.6805 12.244 26.305 9.51802 24.333 8.44295C24.351 8.26895 24.36 8.0908 24.36 7.90852C24.36 7.2611 24.2324 6.62002 23.9847 6.02189C23.7369 5.42375 23.3738 4.88027 22.916 4.42248C22.4582 3.96469 21.9147 3.60155 21.3166 3.35379C20.7185 3.10603 20.0774 2.97852 19.43 2.97852ZM9.56995 2.97852C10.2174 2.97852 10.8584 3.10603 11.4566 3.35379C12.0547 3.60155 12.5982 3.96469 13.056 4.42248C13.5138 4.88027 13.8769 5.42375 14.1247 6.02189C14.3724 6.62002 14.5 7.2611 14.5 7.90852V21.3107C14.498 22.0704 14.3427 22.8218 14.0434 23.52C13.744 24.2183 13.3067 24.8488 12.7577 25.374C12.2087 25.8991 11.5594 26.3079 10.8486 26.576C10.1377 26.8441 9.3801 26.9659 8.62108 26.9341C7.86205 26.9023 7.11726 26.7175 6.43137 26.3909C5.74548 26.0642 5.13261 25.6025 4.62951 25.0332C4.1264 24.464 3.74342 23.799 3.50353 23.0782C3.26364 22.3574 3.17178 21.5956 3.23345 20.8384C2.05895 19.5748 1.31738 17.1098 1.31738 15.0487C1.31738 12.244 2.69488 9.51594 4.66688 8.44295C4.59179 7.75434 4.66266 7.05765 4.87485 6.39827C5.08705 5.73889 5.43581 5.13162 5.89842 4.61606C6.36102 4.10049 6.92707 3.68819 7.55969 3.40604C8.1923 3.12389 8.87727 2.97822 9.56995 2.97852Z" fill="#D7E0FF"/>
<path d="M9.56995 2.97852C10.2174 2.97852 10.8584 3.10603 11.4566 3.35379C12.0547 3.60155 12.5982 3.96469 13.056 4.42248C13.5138 4.88027 13.8769 5.42375 14.1247 6.02189C14.3724 6.62002 14.5 7.2611 14.5 7.90852V21.3107C14.498 22.0703 14.3427 22.8218 14.0434 23.52C13.744 24.2183 13.3067 24.8488 12.7577 25.374C12.2087 25.8991 11.5594 26.3079 10.8486 26.576C10.1377 26.8441 9.3801 26.9659 8.62107 26.9341C7.86205 26.9023 7.11726 26.7175 6.43137 26.3909C5.74548 26.0642 5.13261 25.6025 4.62951 25.0332C4.1264 24.464 3.74342 23.799 3.50353 23.0782C3.26364 22.3574 3.17178 21.5956 3.23345 20.8384C2.05895 19.5748 1.31738 17.1098 1.31738 15.0487C1.31738 12.244 2.69488 9.51595 4.66688 8.44295C4.59179 7.75434 4.66266 7.05765 4.87485 6.39827C5.08705 5.73889 5.43581 5.13162 5.89841 4.61606C6.36102 4.10049 6.92707 3.68819 7.55969 3.40604C8.1923 3.12389 8.87727 2.97822 9.56995 2.97852Z" stroke="#4EC0E6" stroke-linecap="round" stroke-linejoin="round"/>
<path d="M7.27292 11.7945C6.54792 11.6288 4.90942 10.5537 4.66292 8.45744M10.2951 17.3273C13.2531 16.9959 14.4235 13.8763 14.5001 12.6065M4.74371 17.8804C4.00628 18.4604 3.41799 19.7799 3.22949 20.8363M19.4301 2.97852C18.1226 2.97852 16.8687 3.49792 15.9441 4.42248C15.0195 5.34703 14.5001 6.601 14.5001 7.90852V21.3107C14.502 22.0703 14.6573 22.8218 14.9567 23.52C15.2561 24.2183 15.6934 24.8488 16.2424 25.374C16.7913 25.8991 17.4407 26.3079 18.1515 26.576C18.8624 26.8441 19.62 26.9659 20.379 26.9341C21.138 26.9023 21.8828 26.7175 22.5687 26.3909C23.2546 26.0642 23.8675 25.6025 24.3706 25.0332C24.8737 24.464 25.2567 23.799 25.4966 23.0782C25.7364 22.3574 25.8283 21.5956 25.7666 20.8384C26.9411 19.5748 27.6806 17.1098 27.6806 15.0487C27.6806 12.244 26.3052 9.51802 24.3332 8.44294C24.3512 8.26894 24.3601 8.0908 24.3601 7.90852C24.3601 7.2611 24.2326 6.62002 23.9849 6.02189C23.7371 5.42375 23.374 4.88027 22.9162 4.42248C22.4584 3.96469 21.9149 3.60155 21.3168 3.35379C20.7186 3.10603 20.0776 2.97852 19.4301 2.97852Z" stroke="#4EC0E6" stroke-linecap="round" stroke-linejoin="round"/>
<path d="M21.7272 11.7941C22.4522 11.6284 24.0907 10.5533 24.3372 8.45703M18.705 17.3269C15.747 16.9955 14.5766 13.8759 14.5 12.6061M24.2564 17.88C24.9939 18.46 25.5821 19.7795 25.7706 20.8359" stroke="#4EC0E6" stroke-linecap="round" stroke-linejoin="round"/>
</svg>