<svg width="20" height="20" viewBox="0 0 20 20" fill="none" xmlns="http://www.w3.org/2000/svg">
<g clip-path="url(#clip0_143_635)">
<path d="M13.2301 2.45117C12.3735 2.45117 11.5519 2.79147 10.9462 3.39722C10.3404 4.00296 10.0001 4.82452 10.0001 5.68117V14.4619C10.0014 14.9596 10.1031 15.452 10.2993 15.9094C10.4954 16.3669 10.7819 16.78 11.1416 17.1241C11.5013 17.4681 11.9267 17.736 12.3924 17.9116C12.8581 18.0873 13.3545 18.167 13.8518 18.1462C14.3491 18.1253 14.8371 18.0043 15.2864 17.7903C15.7358 17.5763 16.1374 17.2738 16.467 16.9008C16.7966 16.5279 17.0475 16.0922 17.2047 15.6199C17.3619 15.1477 17.422 14.6485 17.3816 14.1525C18.1511 13.3246 18.6356 11.7096 18.6356 10.3592C18.6356 8.52167 17.7345 6.73567 16.4425 6.03132C16.4543 5.91732 16.4601 5.8006 16.4601 5.68117C16.4601 5.257 16.3766 4.83699 16.2143 4.4451C16.0519 4.05322 15.814 3.69715 15.5141 3.39722C15.2142 3.09728 14.8581 2.85936 14.4662 2.69704C14.0743 2.53472 13.6543 2.45117 13.2301 2.45117ZM6.77014 2.45117C7.19431 2.45117 7.61432 2.53472 8.0062 2.69704C8.39809 2.85936 8.75416 3.09728 9.05409 3.39722C9.35403 3.69715 9.59195 4.05322 9.75427 4.4451C9.91659 4.83699 10.0001 5.257 10.0001 5.68117V14.4619C9.99888 14.9596 9.89714 15.452 9.70099 15.9094C9.50485 16.3669 9.21835 16.78 8.85868 17.1241C8.499 17.4681 8.07355 17.736 7.60784 17.9116C7.14213 18.0873 6.64575 18.167 6.14846 18.1462C5.65117 18.1253 5.1632 18.0043 4.71383 17.7903C4.26445 17.5763 3.86291 17.2738 3.53329 16.9008C3.20367 16.5279 2.95276 16.0922 2.79559 15.6199C2.63842 15.1477 2.57823 14.6485 2.61864 14.1525C1.84914 13.3246 1.36328 11.7096 1.36328 10.3592C1.36328 8.52167 2.26578 6.73432 3.55778 6.03132C3.50858 5.58016 3.55501 5.12371 3.69404 4.6917C3.83306 4.25969 4.06156 3.86183 4.36465 3.52404C4.66773 3.18626 5.03859 2.91613 5.45307 2.73128C5.86754 2.54642 6.31631 2.45098 6.77014 2.45117Z" fill="#D7E0FF"/>
<path d="M6.77014 2.45117C7.19431 2.45117 7.61432 2.53472 8.00621 2.69704C8.39809 2.85936 8.75416 3.09728 9.05409 3.39722C9.35403 3.69715 9.59195 4.05322 9.75427 4.4451C9.91659 4.83699 10.0001 5.257 10.0001 5.68117V14.4619C9.99889 14.9596 9.89714 15.452 9.70099 15.9094C9.50485 16.3669 9.21835 16.78 8.85868 17.1241C8.499 17.4681 8.07355 17.736 7.60784 17.9116C7.14213 18.0873 6.64575 18.167 6.14846 18.1462C5.65117 18.1253 5.1632 18.0043 4.71383 17.7903C4.26445 17.5763 3.86291 17.2738 3.53329 16.9008C3.20367 16.5279 2.95276 16.0922 2.79559 15.6199C2.63842 15.1477 2.57823 14.6485 2.61864 14.1525C1.84914 13.3246 1.36328 11.7096 1.36328 10.3592C1.36328 8.52167 2.26578 6.73432 3.55778 6.03132C3.50859 5.58016 3.55501 5.12371 3.69404 4.6917C3.83306 4.25969 4.06156 3.86183 4.36465 3.52404C4.66773 3.18626 5.0386 2.91613 5.45307 2.73128C5.86754 2.54642 6.31631 2.45098 6.77014 2.45117Z" stroke="#8A38F5" stroke-linecap="round" stroke-linejoin="round"/>
<path d="M5.26535 8.22717C4.79035 8.1186 3.71685 7.41424 3.55535 6.04082M7.24542 11.8521C9.18342 11.635 9.95021 9.5911 10.0004 8.75917M3.60828 12.2145C3.12514 12.5945 2.73971 13.459 2.61621 14.1511M13.2304 2.45117C12.3738 2.45117 11.5522 2.79147 10.9465 3.39722C10.3407 4.00296 10.0004 4.82452 10.0004 5.68117V14.4619C10.0017 14.9596 10.1034 15.452 10.2996 15.9094C10.4957 16.3669 10.7822 16.78 11.1419 17.1241C11.5016 17.4681 11.927 17.736 12.3927 17.9116C12.8584 18.0873 13.3548 18.167 13.8521 18.1462C14.3494 18.1253 14.8374 18.0043 15.2867 17.7903C15.7361 17.5763 16.1376 17.2738 16.4673 16.9008C16.7969 16.5279 17.0478 16.0922 17.205 15.6199C17.3621 15.1477 17.4223 14.6485 17.3819 14.1525C18.1514 13.3246 18.6359 11.7096 18.6359 10.3592C18.6359 8.52167 17.7348 6.73567 16.4428 6.03132C16.4545 5.91732 16.4604 5.8006 16.4604 5.68117C16.4604 5.257 16.3769 4.83699 16.2146 4.4451C16.0522 4.05322 15.8143 3.69715 15.5144 3.39722C15.2144 3.09728 14.8584 2.85936 14.4665 2.69704C14.0746 2.53472 13.6546 2.45117 13.2304 2.45117Z" stroke="#8A38F5" stroke-linecap="round" stroke-linejoin="round"/>
<path d="M14.7351 8.22737C15.2101 8.1188 16.2836 7.41444 16.4451 6.04102M12.755 11.8523C10.817 11.6352 10.0502 9.5913 10 8.75937M16.3921 12.2147C16.8753 12.5947 17.2607 13.4592 17.3842 14.1513" stroke="#8A38F5" stroke-linecap="round" stroke-linejoin="round"/>
</g>
<defs>
<clipPath id="clip0_143_635">
<rect width="19" height="19" fill="white" transform="translate(0.5 0.5)"/>
</clipPath>
</defs>
</svg>