<svg width="19" height="19" viewBox="0 0 19 19" fill="none" xmlns="http://www.w3.org/2000/svg">
<path fill-rule="evenodd" clip-rule="evenodd" d="M0.989258 9.7487C0.989258 5.05411 4.80509 1.23828 9.49967 1.23828C14.1943 1.23828 18.0101 5.05411 18.0101 9.7487C18.0101 14.4433 14.1943 18.2591 9.49967 18.2591C4.80509 18.2591 0.989258 14.4433 0.989258 9.7487ZM2.17676 9.7487C2.17676 13.7862 5.46217 17.0716 9.49967 17.0716C13.5372 17.0716 16.8226 13.7862 16.8226 9.7487C16.8226 5.7112 13.5372 2.42578 9.49967 2.42578C5.46217 2.42578 2.17676 5.7112 2.17676 9.7487ZM12.8009 4.8087C13.7747 5.46578 14.5347 6.39203 14.9859 7.47661H14.978C15.4293 8.5612 15.548 9.75661 15.3184 10.9045C15.0888 12.0604 14.5268 13.1133 13.6955 13.9445C12.8675 14.7777 11.8101 15.3453 10.6581 15.5751C9.50622 15.805 8.31195 15.6865 7.22759 15.2349C6.14171 14.7866 5.21323 14.0262 4.55967 13.0499C3.91047 12.0712 3.56357 10.9232 3.56217 9.7487H9.49967V3.8112C10.6793 3.8112 11.8272 4.15953 12.8009 4.8087Z" fill="#7DCE9B"/>
</svg>